#!OML:ASF E:\motion texture\Top Level 1\Subject 1\Session 1\male.ASF
:FULLY-SPECIFIED
:DEGREES
171
root 20.4664 17.0251 4.69361 84.2673 -81.3933 -74.4426
lowerback 13.6605 0.166779 5.74449
upperback 4.75405 0.807691 4.85526
thorax -2.61633 0.253537 1.72966
lowerneck -15.993 0.466132 -2.87631
upperneck 0.10295 0.711897 5.43819
head 2.84348 0.501465 2.38186
rclavicle 8.34896e-015 1.11319e-014
rhumerus 52.8678 22.9113 -59.2691
rradius 75.4099
rwrist 24.4277
rhand -22.1286 -17.9368
rfingers 7.12502
rthumb 4.28462 -47.8734
lclavicle 8.34896e-015 1.11319e-014
lhumerus 37.6757 -19.0265 92.0117
lradius 69.7197
lwrist 28.2598
lhand -9.14299 42.9929
lfingers 7.12502
lthumb 16.8088 72.2854
rfemur -32.4558 -0.395667 29.9635
rtibia 47.7822
rfoot -17.6683 -7.79274
rtoes 2.33704
lfemur -48.0583 6.91364 -10.8895
ltibia 51.2748
lfoot -7.13 3.00818
ltoes -15.2821
172
root 20.2872 17.0256 4.70357 85.2806 -81.3302 -75.3111
lowerback 13.639 0.186442 5.76406
upperback 4.80221 0.827117 4.88381
thorax -2.55351 0.26271 1.74568
lowerneck -15.8973 0.479538 -2.81463
upperneck 0.0206009 0.718891 5.43298
head 2.79632 0.502643 2.36586
rclavicle 4.77083e-015 1.31198e-014
rhumerus 53.463 22.4769 -59.4182
rradius 75.2244
rwrist 24.3894
rhand -22.4774 -17.9558
rfingers 7.12502
rthumb 3.94779 -47.899
lclavicle 4.77083e-015 1.31198e-014
lhumerus 38.1073 -18.8531 92.1845
lradius 69.5238
lwrist 28.0291
lhand -9.2304 42.7998
lfingers 7.12502
lthumb 16.7246 72.0994
rfemur -32.0675 -0.396504 30.0546
rtibia 48.0346
rfoot -17.9652 -7.69959
rtoes 1.56438
lfemur -48.5162 6.91724 -10.8698
ltibia 49.3928
lfoot -7.23554 3.19586
ltoes -15.2998
173
root 20.1064 17.0251 4.71483 86.2147 -81.2673 -76.1084
lowerback 13.612 0.202958 5.78105
upperback 4.84588 0.842188 4.91186
thorax -2.49256 0.269808 1.76333
lowerneck -15.8096 0.489721 -2.75466
upperneck -0.0470425 0.721747 5.43066
head 2.75607 0.502153 2.35132
rclavicle -1.78906e-014 -4.8901e-014
rhumerus 54.0189 22.0542 -59.5949
rradius 75.0155
rwrist 24.3554
rhand -22.8668 -17.986
rfingers 7.12502
rthumb 3.5717 -47.9358
lclavicle -1.78906e-014 -4.8901e-014
lhumerus 38.52 -18.7028 92.3746
lradius 69.3156
lwrist 27.811
lhand -9.34534 42.637
lfingers 7.12502
lthumb 16.614 71.9459
rfemur -31.6904 -0.418321 30.1288
rtibia 48.3246
rfoot -18.2257 -7.58016
rtoes 0.762791
lfemur -48.9106 6.89173 -10.8316
ltibia 47.5195
lfoot -7.26129 3.37313
ltoes -15.3458
174
root 19.9241 17.0235 4.7274 87.0751 -81.2063 -76.8427
lowerback 13.5813 0.21644 5.79458
upperback 4.88608 0.852976 4.93889
thorax -2.43339 0.274853 1.7825
lowerneck -15.7276 0.496759 -2.69625
upperneck -0.102468 0.720549 5.43118
head 2.72142 0.499984 2.33811
rclavicle -1.88845e-014 -4.29375e-014
rhumerus 54.5331 21.6436 -59.7996
rradius 74.7826
rwrist 24.3269
rhand -23.2851 -18.031
rfingers 7.12502
rthumb 3.16773 -47.9873
lclavicle -1.88845e-014 -4.29375e-014
lhumerus 38.9141 -18.5753 92.5826
lradius 69.0916
lwrist 27.6002
lhand -9.491 42.4964
lfingers 7.12502
lthumb 16.4738 71.817
rfemur -31.3263 -0.460349 30.1839
rtibia 48.6562
rfoot -18.4445 -7.43124
rtoes -0.0569084
lfemur -49.2431 6.83729 -10.7761
ltibia 45.6713
lfoot -7.221 3.53988
ltoes -15.4035
175
root 19.7403 17.0207 4.74128 87.8705 -81.149 -77.5254
lowerback 13.5481 0.227537 5.80295
upperback 4.92461 0.860002 4.96472
thorax -2.37475 0.27809 1.80391
lowerneck -15.6535 0.500422 -2.6396
upperneck -0.14521 0.714987 5.43478
head 2.69288 0.496019 2.32636
rclavicle -1.78906e-015 -1.63003e-014
rhumerus 55.0041 21.2445 -60.0326
rradius 74.5245
rwrist 24.3062
rhand -23.731 -18.0813
rfingers 7.12502
rthumb 2.73714 -48.0435
lclavicle -1.78906e-015 -1.63003e-014
lhumerus 39.2918 -18.472 92.8065
lradius 68.8502
lwrist 27.4018
lhand -9.66647 42.3789
lfingers 7.12502
lthumb 16.3048 71.7134
rfemur -30.9777 -0.521374 30.2179
rtibia 49.0353
rfoot -18.6169 -7.24971
rtoes -0.882659
lfemur -49.5164 6.75819 -10.7054
ltibia 43.867
lfoot -7.11197 3.70061
ltoes -15.4452
176
root 19.555 17.0166 4.7564 88.6069 -81.098 -78.1639
lowerback 13.5153 0.236079 5.80385
upperback 4.96222 0.862937 4.98854
thorax -2.31752 0.279322 1.82799
lowerneck -15.5902 0.50079 -2.58594
upperneck -0.174354 0.705263 5.4427
head 2.67133 0.490442 2.31681
rclavicle -1.66979e-014 -6.99722e-014
rhumerus 55.4311 20.8577 -60.2945
rradius 74.2416
rwrist 24.2961
rhand -24.1981 -18.1434
rfingers 7.12502
rthumb 2.286 -48.1109
lclavicle -1.66979e-014 -6.99722e-014
lhumerus 39.654 -18.392 93.0438
lradius 68.5904
lwrist 27.2196
lhand -9.87102 42.2853
lfingers 7.12502
lthumb 16.1079 71.6358
rfemur -30.6467 -0.599069 30.2278
rtibia 49.4657
rfoot -18.7349 -7.03551
rtoes -1.72087
lfemur -49.7357 6.65876 -10.6248
ltibia 42.1297
lfoot -6.94128 3.86505
ltoes -15.441
